<?xml version="1.0" encoding="utf-8"?>
<!-- Generator: Adobe Illustrator 25.2.1, SVG Export Plug-In . SVG Version: 6.00 Build 0)  -->
<svg version="1.1" id="Ebene_1" xmlns="http://www.w3.org/2000/svg" xmlns:xlink="http://www.w3.org/1999/xlink" x="0px" y="0px"
	 width="13px" height="13px" viewBox="0 0 13 13" style="enable-background:new 0 0 13 13;" xml:space="preserve">
<style type="text/css">
	.st0{fill:#91979C;}
</style>
<path id="Pfad_590_1_" class="st0" d="M3.72,8.58h7.67c0.89,0,1.61-0.67,1.61-1.5V4.05c0-0.01,0-0.02,0-0.02c0,0,0-0.01,0-0.01
	c0,0,0,0,0,0c0-0.01,0-0.01,0-0.02V3.99l0-0.01c0,0,0,0,0,0c0,0,0-0.01,0-0.01v0v0c0,0,0-0.01,0-0.01v0c0,0,0-0.01-0.01-0.01
	c0,0-0.01-0.01-0.01-0.01l0,0c0-0.01-0.01-0.01-0.01-0.02l-0.01-0.01c0,0,0-0.01-0.01-0.01l0,0c0,0-0.01-0.01-0.01-0.01l0,0
	c0-0.01-0.01-0.01-0.01-0.02c0,0-0.01-0.01-0.01-0.01c0-0.01-0.01-0.01-0.01-0.01c0-0.01-0.01-0.01-0.02-0.02l-0.02-0.02l0,0
	c0,0-0.01-0.01-0.01-0.01l0,0c0,0-0.01-0.01-0.01-0.01l-0.01,0c0,0-0.01,0-0.01-0.01c0,0-0.01,0-0.01-0.01l0,0l-0.06-0.03
	c0,0-0.01,0-0.01,0h0c-0.01,0-0.02-0.01-0.03-0.01l-0.01,0c-0.01,0-0.02,0-0.02,0c0,0-0.01,0-0.01,0l-9.7-1.24V1.21
	c0-0.01,0-0.03,0-0.04c0,0,0-0.01,0-0.01c0,0,0-0.01,0-0.01c0,0,0-0.01,0-0.01v0v0c0,0,0-0.01,0-0.01c0,0,0-0.01,0-0.01
	c0,0,0-0.01,0-0.01L2.92,1.08c0,0,0-0.01-0.01-0.01V1.07c0-0.01-0.01-0.02-0.01-0.03c0,0,0-0.01-0.01-0.01
	c0-0.01-0.01-0.01-0.01-0.02l0-0.01c0,0,0,0,0,0c0,0,0-0.01-0.01-0.01l0,0c0,0-0.01-0.01-0.01-0.01l0,0l0,0L2.81,0.93
	C2.81,0.93,2.8,0.92,2.79,0.91L2.78,0.91c0,0-0.01-0.01-0.01-0.01c0,0,0,0-0.01,0l0,0C2.75,0.89,2.74,0.88,2.74,0.88c0,0,0,0-0.01,0
	l-0.01,0c-0.01,0-0.01-0.01-0.02-0.01L2.69,0.86L0.58,0.03C0.37-0.05,0.12,0.04,0.03,0.24s0.01,0.42,0.22,0.51l1.85,0.73v7.85
	c0,0.74,0.58,1.36,1.36,1.48c-0.43,0.71-0.16,1.61,0.6,2.01c0.76,0.4,1.73,0.15,2.16-0.56c0.13-0.22,0.2-0.47,0.2-0.73
	c0-0.25-0.07-0.49-0.19-0.7h3.38c-0.13,0.22-0.19,0.46-0.19,0.7c0,0.82,0.71,1.48,1.59,1.48c0.88,0,1.59-0.66,1.59-1.48
	c0-0.82-0.71-1.48-1.59-1.48h-7.3c-0.43,0-0.78-0.32-0.78-0.72V8.39C3.18,8.51,3.45,8.58,3.72,8.58z M12.17,7.08
	c0,0.4-0.35,0.73-0.78,0.73H3.72c-0.43,0-0.78-0.32-0.78-0.72V3.23l9.23,1.18V7.08z M4.85,12.22c-0.42,0-0.76-0.32-0.76-0.7
	c0-0.39,0.34-0.7,0.76-0.7s0.76,0.32,0.76,0.7l0,0C5.61,11.91,5.27,12.22,4.85,12.22L4.85,12.22z M10.26,11.52
	c0-0.39,0.34-0.7,0.76-0.7c0.42,0,0.76,0.32,0.76,0.7s-0.34,0.7-0.76,0.7c0,0,0,0,0,0C10.6,12.22,10.26,11.91,10.26,11.52
	L10.26,11.52z"/>
</svg>
